<svg id="Layer_1" data-name="Layer 1" xmlns="http://www.w3.org/2000/svg" viewBox="0 0 27.66 23.08"><defs><style>.cls-1{fill:none;}.cls-2{fill:#231f20;}</style></defs><title>CelPay-icon</title><path class="cls-1" d="M21.53,15.21a.47.47,0,0,0,.47-.46.48.48,0,0,0-.47-.47.47.47,0,0,0-.46.47A.46.46,0,0,0,21.53,15.21Z"/><path class="cls-1" d="M6.13,15.21a.45.45,0,0,0,.46-.46.46.46,0,0,0-.46-.47.47.47,0,0,0,0,.93Z"/><path class="cls-2" d="M26.08,6.42H15.14v1H26.08a.58.58,0,0,1,.57.57V21.49a.57.57,0,0,1-.57.58H1.59A.58.58,0,0,1,1,21.49V8a.58.58,0,0,1,.58-.57H12.53v-1H1.59A1.59,1.59,0,0,0,0,8V21.49a1.59,1.59,0,0,0,1.59,1.59H26.08a1.59,1.59,0,0,0,1.58-1.59V8A1.58,1.58,0,0,0,26.08,6.42Z"/><path class="cls-2" d="M25,18.49h.46V10.66H25a1.4,1.4,0,0,1-1.44-1.37l0-.46H15.14v.94h7.48a2.33,2.33,0,0,0,1.86,1.78V17.6a2.38,2.38,0,0,0-1.91,2.12H5.09A2.37,2.37,0,0,0,3.18,17.6V11.55A2.32,2.32,0,0,0,5,9.77h7.49V8.83H4.16v.46a1.42,1.42,0,0,1-1.45,1.37H2.24v7.83h.47a1.45,1.45,0,0,1,1.46,1.43.7.7,0,0,1,0,.16L4,20.67H23.68l-.17-.58a1,1,0,0,1,0-.17A1.44,1.44,0,0,1,25,18.49Z"/><path class="cls-2" d="M4.7,14.75a1.44,1.44,0,1,0,1.43-1.44A1.44,1.44,0,0,0,4.7,14.75Zm1,0a.47.47,0,0,1,.46-.47.46.46,0,0,1,.46.47.45.45,0,0,1-.46.46A.47.47,0,0,1,5.67,14.75Z"/><path class="cls-2" d="M23,14.75a1.44,1.44,0,1,0-1.45,1.44A1.44,1.44,0,0,0,23,14.75Zm-1.45-.47a.48.48,0,0,1,.47.47.47.47,0,0,1-.47.46.46.46,0,0,1-.46-.46A.47.47,0,0,1,21.53,14.28Z"/><path class="cls-2" d="M12.48,12.31l0,0V11.22l-.14.06a3.75,3.75,0,0,0,0,6.93l.14.06V17.22l0,0A2.84,2.84,0,0,1,11,14.75,2.8,2.8,0,0,1,12.48,12.31Z"/><path class="cls-2" d="M15.19,17.2l0,0v1.05l.14-.06a3.75,3.75,0,0,0,0-6.93l-.14-.06v1.06l0,0a2.81,2.81,0,0,1,1.45,2.44A2.86,2.86,0,0,1,15.19,17.2Z"/><path class="cls-2" d="M9.37,5.07l.16-.15,3.83-3.45V18.32a.37.37,0,0,0,.14.3.47.47,0,0,0,.33.13.54.54,0,0,0,.35-.13.44.44,0,0,0,.14-.3V1.48l4,3.59a.52.52,0,0,0,.68,0,.42.42,0,0,0,0-.62c-.17-.14-3.72-3.34-4.8-4.32a.52.52,0,0,0-.68,0L8.68,4.45a.42.42,0,0,0,0,.62A.53.53,0,0,0,9.37,5.07Z"/></svg>