<?xml version="1.0" encoding="UTF-8"?>
<svg width="35px" height="45px" viewBox="0 0 35 45" version="1.1" xmlns="http://www.w3.org/2000/svg" xmlns:xlink="http://www.w3.org/1999/xlink">
    <!-- Generator: sketchtool 52.1 (67048) - http://www.bohemiancoding.com/sketch -->
    <title>2158E3E9-6DDF-4E59-96FC-6A1A1AE5FA51</title>
    <desc>Created with sketchtool.</desc>
    <defs>
        <polygon id="path-1" points="0 0.00695454545 34.0905 0.00695454545 34.0905 27.2727273 0 27.2727273"></polygon>
    </defs>
    <g id="2FA" stroke="none" stroke-width="1" fill="none" fill-rule="evenodd">
        <g id="10-//-Profile---2FA---Security-methods" transform="translate(-66.000000, -327.000000)">
            <g id="auth-app" transform="translate(38.000000, 286.000000)">
                <g id="lock-icon" transform="translate(28.000000, 41.000000)">
                    <path d="M18.3483409,29.1035455 L18.3483409,33.4767273 C18.3353864,34.2001364 17.7469773,34.7762727 17.0297045,34.7646818 C16.3076591,34.7524091 15.7369773,34.1633182 15.7431136,33.4460455 L15.7431136,29.0912727 C15.7369773,28.3685455 16.3137955,27.7794545 17.0297045,27.7794545 L17.0726591,27.7794545 C17.78925,27.7917273 18.3606136,28.3869545 18.3483409,29.1035455" id="Fill-1" fill="#4156A6"></path>
                    <path d="M32.5839545,18.23175 C32.7612273,18.3544773 32.9316818,18.4976591 33.0816818,18.6476591 C32.9316818,18.4908409 32.7612273,18.3476591 32.5839545,18.23175 M32.5839545,44.3256136 C32.7612273,44.2097045 32.9316818,44.0658409 33.0816818,43.9090227 C32.9316818,44.0590227 32.7612273,44.2022045 32.5839545,44.3256136 M31.6846364,17.8022045 C32.0044091,17.8976591 32.3044091,18.0476591 32.5771364,18.23175 C32.3044091,18.0408409 32.0044091,17.8908409 31.6846364,17.8022045 M31.6846364,44.7544773 C32.0044091,44.6665227 32.3044091,44.5158409 32.5771364,44.3256136 C32.3044091,44.5090227 32.0044091,44.6590227 31.6846364,44.7544773" id="Fill-3" fill="#3D4853"></path>
                    <g id="Group-7" transform="translate(0.000000, 17.638636)">
                        <mask id="mask-2" fill="white">
                            <use xlink:href="#path-1"></use>
                        </mask>
                        <g id="Clip-6"></g>
                        <path d="M31.9707273,23.4819545 C31.9707273,23.9933182 31.5064091,25.3092273 30.3002727,25.3092273 L3.79118182,25.3092273 C2.58368182,25.3092273 2.12072727,23.9933182 2.12072727,23.4819545 L2.12072727,3.79104545 C2.12072727,3.27968182 2.58368182,1.96377273 3.79118182,1.96377273 L30.3002727,1.96377273 C31.5064091,1.96377273 31.9707273,3.27968182 31.9707273,3.79104545 L31.9707273,23.4819545 Z M33.9343636,2.40013636 C33.8314091,2.07968182 33.6889091,1.77968182 33.5048182,1.51377273 C33.3752727,1.32968182 33.2382273,1.15922727 33.0820909,1.00922727 C32.9314091,0.859227273 32.7609545,0.716045455 32.5836818,0.593318182 L32.5775455,0.593318182 C32.3041364,0.409227273 32.0048182,0.259227273 31.6843636,0.163772727 C31.3707273,0.0615 31.0366364,0.00695454545 30.6889091,0.00695454545 L3.41618182,0.00695454545 C3.06777273,0.00695454545 2.72686364,0.0615 2.40709091,0.163772727 C2.08663636,0.259227273 1.78595455,0.409227273 1.51390909,0.593318182 L1.50640909,0.593318182 C1.32981818,0.716045455 1.15936364,0.859227273 1.00936364,1.00922727 C0.851863636,1.15922727 0.7155,1.32968182 0.586636364,1.51377273 C0.401863636,1.77968182 0.258681818,2.07968182 0.157090909,2.40013636 C0.0541363636,2.72059091 -0.000409090909,3.0615 -0.000409090909,3.40922727 L-0.000409090909,23.8699091 C-0.000409090909,24.2183182 0.0541363636,24.5592273 0.157090909,24.8796818 C0.258681818,25.2001364 0.401863636,25.5001364 0.586636364,25.7660455 C0.7155,25.9501364 0.851863636,26.1130909 1.00936364,26.2705909 C1.15936364,26.4205909 1.32981818,26.5637727 1.50640909,26.6865 L1.51390909,26.6865 C1.78595455,26.8705909 2.08663636,27.0199091 2.40709091,27.1160455 C2.72686364,27.2176364 3.06777273,27.2728636 3.41618182,27.2728636 L30.6889091,27.2728636 C31.0366364,27.2728636 31.3707273,27.2176364 31.6843636,27.1160455 C32.0048182,27.0199091 32.3041364,26.8705909 32.5775455,26.6865 L32.5836818,26.6865 C32.7609545,26.5637727 32.9314091,26.4205909 33.0820909,26.2705909 C33.2382273,26.1130909 33.3752727,25.9501364 33.5048182,25.7660455 C33.6889091,25.5001364 33.8314091,25.2001364 33.9343636,24.8796818 C34.0359545,24.5592273 34.0905,24.2183182 34.0905,23.8699091 L34.0905,3.40922727 C34.0905,3.0615 34.0359545,2.72059091 33.9343636,2.40013636 Z" id="Fill-5" fill="#3D4853" mask="url(#mask-2)"></path>
                    </g>
                    <path d="M28.4730682,11.4205227 L28.4730682,16.0296136 L26.5735227,16.0296136 L26.53875,11.4205227 C26.53875,6.35461364 22.1185227,2.01006818 17.0451136,2.01006818 C11.9860227,2.01006818 7.61215909,6.35461364 7.61215909,11.4205227 L7.54261364,16.0296136 L5.61784091,16.0296136 L5.61784091,11.4205227 C5.61784091,5.12052273 10.7457955,6.81818182e-05 17.0451136,6.81818182e-05 C23.3451136,6.81818182e-05 28.4730682,5.12052273 28.4730682,11.4205227" id="Fill-8" fill="#4156A6"></path>
                </g>
            </g>
        </g>
    </g>
</svg>